REM DIRINDEX 1\2\5,1\2\6,1\3\7,1\3\8,1\4\9,1\4\10
REM DIRNAME folder01,folder02,folder03,folder04,folder05,folder06,folder07,folder08,folder09,folder10
TITLE ""
FILE "Track15.mp3" MP3
  TRACK 01 AUDIO
    TITLE "8:cjc079_0358"
    INDEX 01 00:00:00
  TRACK 02 AUDIO
    TITLE "8:cjc079_0359"
    INDEX 01 00:02:20
  TRACK 03 AUDIO
    TITLE "7:cjc079_0360"
    INDEX 01 00:04:11
  TRACK 04 AUDIO
    TITLE "0:"
    INDEX 01 00:05:40
  TRACK 05 AUDIO
    TITLE "7:cjc079_0361"
    INDEX 01 00:06:08
  TRACK 06 AUDIO
    TITLE "0:"
    INDEX 01 00:07:35
  TRACK 07 AUDIO
    TITLE "8:cjc079_0362"
    INDEX 01 00:09:08
  TRACK 08 AUDIO
    TITLE "7:cjc079_0363"
    INDEX 01 00:10:47
  TRACK 09 AUDIO
    TITLE "0:"
    INDEX 01 00:11:58
  TRACK 10 AUDIO
    TITLE "7:cjc079_0364"
    INDEX 01 00:12:24
  TRACK 11 AUDIO
    TITLE "0:"
    INDEX 01 00:13:33
  TRACK 12 AUDIO
    TITLE "8:cjc079_0365"
    INDEX 01 00:15:05
  TRACK 13 AUDIO
    TITLE "7:cjc079_0366"
    INDEX 01 00:16:38
  TRACK 14 AUDIO
    TITLE "0:"
    INDEX 01 00:17:61
  TRACK 15 AUDIO
    TITLE "7:cjc079_0367"
    INDEX 01 00:18:33
  TRACK 16 AUDIO
    TITLE "0:"
    INDEX 01 00:19:56
  TRACK 17 AUDIO
    TITLE "8:cjc079_0368"
    INDEX 01 00:21:29
  TRACK 18 AUDIO
    TITLE "7:cjc079_0369"
    INDEX 01 00:23:04
  TRACK 19 AUDIO
    TITLE "0:"
    INDEX 01 00:24:20
  TRACK 20 AUDIO
    TITLE "7:cjc079_0370"
    INDEX 01 00:24:63
  TRACK 21 AUDIO
    TITLE "0:"
    INDEX 01 00:26:03
  TRACK 22 AUDIO
    TITLE "8:cjc079_0371"
    INDEX 01 00:27:47
  TRACK 23 AUDIO
    TITLE "7:cjc079_0372"
    INDEX 01 00:29:09
  TRACK 24 AUDIO
    TITLE "0:"
    INDEX 01 00:30:22
  TRACK 25 AUDIO
    TITLE "7:cjc079_0373"
    INDEX 01 00:30:69
  TRACK 26 AUDIO
    TITLE "0:"
    INDEX 01 00:32:07
  TRACK 27 AUDIO
    TITLE "8:cjc079_0374"
    INDEX 01 00:33:54
  TRACK 28 AUDIO
    TITLE "7:cjc079_0375"
    INDEX 01 00:35:35
  TRACK 29 AUDIO
    TITLE "0:"
    INDEX 01 00:36:68
  TRACK 30 AUDIO
    TITLE "7:cjc079_0376"
    INDEX 01 00:37:46
  TRACK 31 AUDIO
    TITLE "0:"
    INDEX 01 00:39:03
  TRACK 32 AUDIO
    TITLE "8:cjc079_0377"
    INDEX 01 00:40:58
  TRACK 33 AUDIO
    TITLE "7:cjc079_0378"
    INDEX 01 00:42:25
  TRACK 34 AUDIO
    TITLE "0:"
    INDEX 01 00:43:66
  TRACK 35 AUDIO
    TITLE "7:cjc079_0379"
    INDEX 01 00:44:40
  TRACK 36 AUDIO
    TITLE "0:"
    INDEX 01 00:46:02
  TRACK 37 AUDIO
    TITLE "8:cjc079_0380"
    INDEX 01 00:47:54
  TRACK 38 AUDIO
    TITLE "7:cjc079_0381"
    INDEX 01 00:49:14
  TRACK 39 AUDIO
    TITLE "0:"
    INDEX 01 00:50:37
  TRACK 40 AUDIO
    TITLE "7:cjc079_0382"
    INDEX 01 00:51:13
  TRACK 41 AUDIO
    TITLE "0:"
    INDEX 01 00:52:37
  TRACK 42 AUDIO
    TITLE "8:cjc079_0383"
    INDEX 01 00:54:09
  TRACK 43 AUDIO
    TITLE "7:cjc079_0384"
    INDEX 01 00:55:57
  TRACK 44 AUDIO
    TITLE "0:"
    INDEX 01 00:57:23
  TRACK 45 AUDIO
    TITLE "7:cjc079_0385"
    INDEX 01 00:57:64
  TRACK 46 AUDIO
    TITLE "0:"
    INDEX 01 00:59:26
  TRACK 47 AUDIO
    TITLE "8:cjc079_0386"
    INDEX 01 01:00:74
  TRACK 48 AUDIO
    TITLE "7:cjc079_0387"
    INDEX 01 01:02:38
  TRACK 49 AUDIO
    TITLE "0:"
    INDEX 01 01:03:61
  TRACK 50 AUDIO
    TITLE "7:cjc079_0388"
    INDEX 01 01:04:33
  TRACK 51 AUDIO
    TITLE "0:"
    INDEX 01 01:05:56
  TRACK 52 AUDIO
    TITLE "8:cjc079_0389"
    INDEX 01 01:07:27
  TRACK 53 AUDIO
    TITLE "7:cjc079_0390"
    INDEX 01 01:09:12
  TRACK 54 AUDIO
    TITLE "0:"
    INDEX 01 01:10:39
  TRACK 55 AUDIO
    TITLE "7:cjc079_0391"
    INDEX 01 01:11:11
  TRACK 56 AUDIO
    TITLE "0:"
    INDEX 01 01:12:38
  TRACK 57 AUDIO
    TITLE "8:cjc079_0392"
    INDEX 01 01:14:14
  TRACK 58 AUDIO
    TITLE "7:cjc079_0393"
    INDEX 01 01:15:52
  TRACK 59 AUDIO
    TITLE "0:"
    INDEX 01 01:17:16
  TRACK 60 AUDIO
    TITLE "7:cjc079_0394"
    INDEX 01 01:17:59
  TRACK 61 AUDIO
    TITLE "0:"
    INDEX 01 01:19:23
  TRACK 62 AUDIO
    TITLE "8:cjc079_0395"
    INDEX 01 01:20:71
  TRACK 63 AUDIO
    TITLE "7:cjc079_0396"
    INDEX 01 01:22:27
  TRACK 64 AUDIO
    TITLE "0:"
    INDEX 01 01:23:48
  TRACK 65 AUDIO
    TITLE "7:cjc079_0397"
    INDEX 01 01:24:20
  TRACK 66 AUDIO
    TITLE "0:"
    INDEX 01 01:25:41
  TRACK 67 AUDIO
    TITLE "8:cjc079_0398"
    INDEX 01 01:27:12
  TRACK 68 AUDIO
    TITLE "7:cjc079_0399"
    INDEX 01 01:28:63
  TRACK 69 AUDIO
    TITLE "0:"
    INDEX 01 01:30:11
  TRACK 70 AUDIO
    TITLE "7:cjc079_0400"
    INDEX 01 01:30:58
  TRACK 71 AUDIO
    TITLE "0:"
    INDEX 01 01:32:06
  TRACK 72 AUDIO
    TITLE "8:cjc079_0401"
    INDEX 01 01:33:54
  TRACK 73 AUDIO
    TITLE "7:cjc079_0402"
    INDEX 01 01:35:20
  TRACK 74 AUDIO
    TITLE "0:"
    INDEX 01 01:36:39
  TRACK 75 AUDIO
    TITLE "7:cjc079_0403"
    INDEX 01 01:37:11
  TRACK 76 AUDIO
    TITLE "0:"
    INDEX 01 01:38:30
  TRACK 77 AUDIO
    TITLE "8:cjc079_0404"
    INDEX 01 01:40:03
  TRACK 78 AUDIO
    TITLE "7:cjc079_0405"
    INDEX 01 01:41:63
  TRACK 79 AUDIO
    TITLE "0:"
    INDEX 01 01:43:11
  TRACK 80 AUDIO
    TITLE "7:cjc079_0406"
    INDEX 01 01:43:58
  TRACK 81 AUDIO
    TITLE "0:"
    INDEX 01 01:45:06
  TRACK 82 AUDIO
    TITLE "8:cjc079_0407"
    INDEX 01 01:46:59
  TRACK 83 AUDIO
    TITLE "7:cjc079_0408"
    INDEX 01 01:48:24
  TRACK 84 AUDIO
    TITLE "0:"
    INDEX 01 01:49:47
  TRACK 85 AUDIO
    TITLE "7:cjc079_0409"
    INDEX 01 01:50:23
  TRACK 86 AUDIO
    TITLE "0:"
    INDEX 01 01:51:44
  TRACK 87 AUDIO
    TITLE "8:cjc079_0410"
    INDEX 01 01:53:21
  TRACK 88 AUDIO
    TITLE "7:cjc079_0411"
    INDEX 01 01:54:52
  TRACK 89 AUDIO
    TITLE "0:"
    INDEX 01 01:55:71
  TRACK 90 AUDIO
    TITLE "7:cjc079_0412"
    INDEX 01 01:56:41
  TRACK 91 AUDIO
    TITLE "0:"
    INDEX 01 01:57:58
  TRACK 92 AUDIO
    TITLE "8:cjc079_0413"
    INDEX 01 01:59:28
  TRACK 93 AUDIO
    TITLE "7:cjc079_0414"
    INDEX 01 02:01:05
  TRACK 94 AUDIO
    TITLE "0:"
    INDEX 01 02:02:40
  TRACK 95 AUDIO
    TITLE "7:cjc079_0415"
    INDEX 01 02:03:10
  TRACK 96 AUDIO
    TITLE "0:"
    INDEX 01 02:04:43
  TRACK 97 AUDIO
    TITLE "8:cjc079_0416"
    INDEX 01 02:06:14
  TRACK 98 AUDIO
    TITLE "7:cjc079_0417"
    INDEX 01 02:07:53
  TRACK 99 AUDIO
    TITLE "0:"
    INDEX 01 02:08:68
  TRACK 100 AUDIO
    TITLE "7:cjc079_0418"
    INDEX 01 02:09:38
  TRACK 101 AUDIO
    TITLE "0:"
    INDEX 01 02:10:53
